HIERARCHY
ROOT Hips
{
	OFFSET 0.000000 0.000000 0.000000
	CHANNELS 6 Xposition Yposition Zposition Xrotation Yrotation Zrotation
	JOINT LeftUpLeg_virtual
	{
		OFFSET 0.000000 0.000000 0.000000
		CHANNELS 3 Xrotation Yrotation Zrotation
		JOINT LeftUpLeg
		{
			OFFSET 15.427100 -6.655098 0.678600
			CHANNELS 3 Xrotation Yrotation Zrotation
			JOINT LeftLeg
			{
				OFFSET 4.081073 -39.591068 13.024000
				CHANNELS 3 Xrotation Yrotation Zrotation
				JOINT LeftFoot
				{
					OFFSET -4.081074 -37.707932 -15.979700
					CHANNELS 3 Xrotation Yrotation Zrotation
					JOINT LeftToeBase
					{
						OFFSET 5.346399 -15.068900 20.645000
						CHANNELS 3 Xrotation Yrotation Zrotation
						JOINT LeftToe_End
						{
							OFFSET 2.754700 0.931300 11.300900
							CHANNELS 3 Xrotation Yrotation Zrotation
							End Site
							{
								OFFSET 0 0 0
							}
						}
					}
				}
			}
		}
	}
	JOINT RightUpLeg_virtual
	{
		OFFSET 0.000000 0.000000 0.000000
		CHANNELS 3 Xrotation Yrotation Zrotation
		JOINT RightUpLeg
		{
			OFFSET -15.569500 -6.655098 0.678600
			CHANNELS 3 Xrotation Yrotation Zrotation
			JOINT RightLeg
			{
				OFFSET -4.081825 -39.591045 13.023800
				CHANNELS 3 Xrotation Yrotation Zrotation
				JOINT RightFoot
				{
					OFFSET 4.081824 -37.707954 -15.979600
					CHANNELS 3 Xrotation Yrotation Zrotation
					JOINT RightToeBase
					{
						OFFSET -5.346400 -15.068900 20.645000
						CHANNELS 3 Xrotation Yrotation Zrotation
						JOINT RightToe_End
						{
							OFFSET -2.754700 0.931300 11.300900
							CHANNELS 3 Xrotation Yrotation Zrotation
							End Site
							{
								OFFSET 0 0 0
							}
						}
					}
				}
			}
		}
	}
	JOINT Spine_virtual
	{
		OFFSET 0.000000 0.000000 0.000000
		CHANNELS 3 Xrotation Yrotation Zrotation
		JOINT Spine
		{
			OFFSET -0.279200 12.230698 -2.892100
			CHANNELS 3 Xrotation Yrotation Zrotation
			JOINT Spine1
			{
				OFFSET -0.232667 10.192268 -1.242267
				CHANNELS 3 Xrotation Yrotation Zrotation
				JOINT Spine1_split
				{
					OFFSET -0.232667 10.192268 -1.242267
					CHANNELS 3 Xrotation Yrotation Zrotation
					JOINT Spine2
					{
						OFFSET -0.232667 10.192268 -1.242267
						CHANNELS 3 Xrotation Yrotation Zrotation
						JOINT Neck_virtual
						{
							OFFSET 0.000000 0.000000 0.000000
							CHANNELS 3 Xrotation Yrotation Zrotation
							JOINT Neck
							{
								OFFSET -0.418800 17.814194 8.416900
								CHANNELS 3 Xrotation Yrotation Zrotation
								JOINT Head
								{
									OFFSET 0.000000 7.031097 3.806800
									CHANNELS 3 Xrotation Yrotation Zrotation
									JOINT HeadTop_End
									{
										OFFSET 0.000000 24.646606 12.978600
										CHANNELS 3 Xrotation Yrotation Zrotation
										End Site
										{
											OFFSET 0 0 0
										}
									}
								}
							}
						}
						JOINT LeftShoulder_virtual
						{
							OFFSET 0.000000 0.000000 0.000000
							CHANNELS 3 Xrotation Yrotation Zrotation
							JOINT LeftShoulder
							{
								OFFSET 8.476499 7.247704 -3.868750
								CHANNELS 3 Xrotation Yrotation Zrotation
								JOINT LeftShoulder_split
								{
									OFFSET 8.476499 7.247704 -3.868750
									CHANNELS 3 Xrotation Yrotation Zrotation
									JOINT LeftArm
									{
										OFFSET 9.308998 -2.777710 0.208600
										CHANNELS 3 Xrotation Yrotation Zrotation
										JOINT LeftForeArm
										{
											OFFSET 29.972298 0.000000 0.000000
											CHANNELS 3 Xrotation Yrotation Zrotation
											JOINT LeftHand
											{
												OFFSET 26.026505 0.000000 0.000000
												CHANNELS 3 Xrotation Yrotation Zrotation
												End Site
												{
													OFFSET 0 0 0
												}
											}
										}
									}
								}
							}
						}
						JOINT RightShoulder_virtual
						{
							OFFSET 0.000000 0.000000 0.000000
							CHANNELS 3 Xrotation Yrotation Zrotation
							JOINT RightShoulder
							{
								OFFSET -7.570500 7.247704 -3.868750
								CHANNELS 3 Xrotation Yrotation Zrotation
								JOINT RightShoulder_split
								{
									OFFSET -7.570500 7.247704 -3.868750
									CHANNELS 3 Xrotation Yrotation Zrotation
									JOINT RightArm
									{
										OFFSET -9.308998 -2.777710 0.208500
										CHANNELS 3 Xrotation Yrotation Zrotation
										JOINT RightForeArm
										{
											OFFSET -29.972300 0.000000 0.000000
											CHANNELS 3 Xrotation Yrotation Zrotation
											JOINT RightHand
											{
												OFFSET -26.026505 0.000000 0.000000
												CHANNELS 3 Xrotation Yrotation Zrotation
												End Site
												{
													OFFSET 0 0 0
												}
											}
										}
									}
								}
							}
						}
					}
				}
			}
		}
	}
}
MOTION
Frames: 7
Frame Time: 0.03333333
-61.071617 19.553974 1.484406 0.000000 0.000000 0.000000 -51.932674 11.746370 105.035230 -25.465508 12.031464 -0.915024 55.462546 4.047273 -11.786765 -8.978539 -16.298448 4.906783 -6.362341 -3.040545 3.486828 0.000000 0.000000 0.000000 -61.461628 7.641243 109.814074 -32.898996 -35.270824 -16.271572 108.463698 0.126791 0.622108 -29.915686 4.550245 11.407120 7.391625 -0.851178 3.872213 0.000000 0.000000 0.000000 -53.171189 6.956403 100.517538 13.385703 -1.217455 -5.489027 17.781634 0.272010 -2.645875 0.360676 2.584511 -1.125031 0.000000 0.000000 0.000000 12.248111 0.874418 -2.563707 44.146012 7.355210 -10.882289 -6.806094 11.316303 -1.879100 0.000000 0.000000 0.000000 15.669231 1.758711 -2.453965 0.661706 -3.349781 -13.516188 0.055453 -11.847742 -1.130441 -55.804476 -8.792152 -20.872935 46.785498 -12.135202 10.836817 0.000000 0.000000 0.000000 16.584331 1.758934 -3.183195 4.837082 19.376449 -10.606749 -10.391043 -7.006902 2.900444 -19.499854 -3.044901 15.268724 22.285534 47.328344 -14.317245 0.000000 0.000000 0.000000 
-65.179626 14.167511 1.712467 0.000000 0.000000 0.000000 -54.294055 1.445459 110.686514 -21.255515 4.964803 -6.061538 54.836153 7.725781 -8.477136 -10.228501 -10.587288 4.376723 -8.076382 -2.918426 2.590758 0.000000 0.000000 0.000000 -61.836366 -2.820057 114.387562 -36.870194 -31.370297 -22.889567 108.956571 -3.766154 1.716225 -32.043904 -0.175362 12.741508 4.668118 -1.200181 3.774869 0.000000 0.000000 0.000000 -56.264564 -1.587061 105.093464 14.089429 -2.044058 -5.654201 17.741182 -0.174000 -1.626376 0.705507 3.635125 -0.801341 0.000000 0.000000 0.000000 11.925772 0.203952 -1.494133 40.888914 4.163110 -8.003257 -6.739848 3.901613 -1.747128 0.000000 0.000000 0.000000 15.361145 1.187651 -1.192639 0.319398 -4.014636 -17.808487 -1.441361 -11.365944 -1.323894 -60.062170 -2.499333 -24.423759 47.959218 -14.346800 12.371265 0.000000 0.000000 0.000000 16.727965 1.138467 -2.190066 4.696926 19.955231 -9.970580 -10.014905 -6.922975 2.893991 -16.056438 -1.548265 13.377857 25.976512 44.584401 -18.664755 0.000000 0.000000 0.000000 
-69.402634 11.450916 1.074921 0.000000 0.000000 0.000000 -56.082291 -7.638316 113.786526 -19.017832 -1.447899 -8.667197 53.366204 11.406213 -5.757013 -6.995117 -4.106248 1.788994 -8.866047 -2.586320 1.706938 0.000000 0.000000 0.000000 -61.222421 -11.702620 115.901152 -37.476544 -28.318514 -29.320421 104.668011 -7.020894 2.553652 -30.812476 -3.338371 16.034482 0.384582 -1.091897 2.753886 0.000000 0.000000 0.000000 -59.015799 -8.669383 107.452939 15.029247 -2.394781 -5.098312 16.522656 -0.227652 -0.271320 -0.597971 3.600015 0.546597 0.000000 0.000000 0.000000 10.641041 0.008870 -0.177140 36.008091 0.821037 -5.100998 -9.319391 -4.397067 -1.661028 0.000000 0.000000 0.000000 13.775168 1.085580 0.377836 -0.054148 -4.267996 -20.927517 -2.506514 -10.562054 -2.560166 -63.498793 9.758671 -24.727440 50.806355 -19.516622 17.192578 0.000000 0.000000 0.000000 15.456465 0.876040 -0.910595 4.831803 20.470256 -9.679037 -10.695419 -7.024481 3.225593 -14.074979 3.752616 10.804205 23.995742 42.283696 -18.652215 0.000000 0.000000 0.000000 
-73.406937 11.407475 -0.363140 0.000000 0.000000 0.000000 -58.296170 -14.920210 114.343609 -18.506251 -5.740480 -7.493113 51.389517 14.363458 -4.113711 2.145308 1.244633 -3.049550 -7.738337 -2.153916 0.758413 0.000000 0.000000 0.000000 -61.593417 -18.145828 114.908685 -35.294494 -26.526462 -33.877632 94.884373 -9.458073 3.105531 -27.438415 -4.531422 19.815046 -1.638546 -0.482169 1.264075 0.000000 0.000000 0.000000 -61.889143 -14.162296 107.640441 16.459050 -2.289316 -3.586135 14.580536 -0.237414 1.255516 -1.497291 2.734054 1.659897 0.000000 0.000000 0.000000 8.877836 -0.024272 1.207898 30.115807 -2.110255 -2.657910 -13.758409 -11.884688 -2.280028 0.000000 0.000000 0.000000 11.491000 1.045012 2.062553 -0.356531 -4.617003 -22.307357 -2.993893 -9.773951 -4.158034 -67.032658 23.861211 -21.335894 56.328854 -25.642086 25.584140 0.000000 0.000000 0.000000 13.311166 0.675248 0.488392 5.183867 20.463044 -9.783040 -11.557057 -8.388109 4.178190 -14.322211 10.517215 8.796693 16.817655 39.123829 -14.542859 0.000000 0.000000 0.000000 
-76.987793 13.411152 -2.717045 0.000000 0.000000 0.000000 -60.986199 -20.272316 112.399157 -19.451366 -7.143783 -2.753463 49.849791 16.616749 -3.757450 14.413415 3.973887 -8.129490 -5.112012 -1.752139 -0.174333 0.000000 0.000000 0.000000 -63.988327 -22.161870 112.122371 -31.898933 -25.791131 -36.232788 81.533013 -10.689949 3.439560 -22.169341 -3.593281 22.463352 -0.080984 0.401992 -0.174000 0.000000 0.000000 0.000000 -64.777685 -18.280682 106.040128 18.393325 -1.709249 -1.079409 12.574552 -0.462712 2.717638 -2.407572 2.309844 2.134746 0.000000 0.000000 0.000000 7.206575 -0.164509 2.529905 24.434112 -4.086659 -0.602429 -18.976709 -16.899216 -3.526384 0.000000 0.000000 0.000000 9.203611 0.793097 3.608184 -0.510743 -4.976920 -21.989984 -3.234605 -9.512616 -5.371052 -70.772651 34.829826 -15.892812 64.497893 -29.630180 36.597144 0.000000 0.000000 0.000000 10.940579 0.300428 1.744538 5.643872 19.548106 -10.429713 -12.585380 -10.894941 5.638412 -15.823093 15.984839 8.301495 6.809148 33.929771 -8.203490 0.000000 0.000000 0.000000 
-80.334610 16.370594 -4.688541 0.000000 0.000000 0.000000 -64.149191 -23.272036 108.673760 -21.234730 -6.155599 3.982852 48.657366 18.533017 -4.166795 24.498697 4.400773 -10.962633 -2.148168 -1.545432 -0.877265 0.000000 0.000000 0.000000 -68.553168 -23.862965 108.678835 -28.927395 -25.243382 -37.020855 68.483295 -10.910753 4.218999 -14.440316 -1.726056 23.480788 2.943943 1.108414 -1.106567 0.000000 0.000000 0.000000 -67.366962 -21.287126 102.852581 20.615053 -0.859019 2.066633 10.917943 -0.932987 3.833139 -2.266260 2.103521 2.047048 0.000000 0.000000 0.000000 5.906809 -0.529991 3.529931 19.475957 -5.176281 1.292155 -23.745480 -19.092655 -4.623181 0.000000 0.000000 0.000000 7.483694 0.265900 4.756442 -0.506573 -5.618907 -20.234758 -2.889188 -8.937557 -6.086772 -72.644130 40.379279 -11.293651 72.098405 -29.280502 46.532272 0.000000 0.000000 0.000000 8.889202 -0.295466 2.683931 6.008687 17.778931 -11.227247 -13.199697 -13.825563 6.933110 -17.698036 19.037081 9.498171 -2.998652 27.042418 -2.181185 0.000000 0.000000 0.000000 
-83.349823 19.029404 -6.102886 0.000000 0.000000 0.000000 -67.788384 -23.924039 104.652466 -23.467565 -3.610584 10.986355 46.865391 19.718886 -4.528326 28.667953 3.341783 -10.738405 -0.879722 -1.606783 -0.853382 0.000000 0.000000 0.000000 -74.270473 -24.445037 105.727141 -28.049579 -24.140370 -37.754718 59.640365 -10.302889 5.422380 -5.026077 0.027704 23.811235 4.635038 1.277115 -1.416891 0.000000 0.000000 0.000000 -69.835064 -23.399659 99.299039 22.672048 -0.064434 5.159833 9.665039 -1.545007 4.482023 -1.197513 2.447717 0.893756 0.000000 0.000000 0.000000 4.964067 -1.030277 4.115604 16.008075 -5.949146 3.403527 -27.380427 -18.963598 -4.814279 0.000000 0.000000 0.000000 6.540100 -0.434769 5.391739 -0.305581 -6.357146 -17.412208 -1.506618 -8.402654 -6.226369 -70.934807 40.718733 -10.288391 75.355667 -25.442972 51.703340 0.000000 0.000000 0.000000 7.543573 -0.933813 3.216198 6.179536 15.111520 -12.458943 -13.223731 -16.065699 7.723644 -19.462344 19.032411 11.769041 -10.792838 19.786559 2.033314 0.000000 0.000000 0.000000 
